<?xml version="1.0" encoding="UTF-8" standalone="no"?><!DOCTYPE svg PUBLIC "-//W3C//DTD SVG 1.1//EN" "http://www.w3.org/Graphics/SVG/1.1/DTD/svg11.dtd"><!-- Generated by graphviz version 2.40.1 (20161225.0304)
 --><!-- Title: pinot Pages: 1 --><svg xmlns="http://www.w3.org/2000/svg" xmlns:xlink="http://www.w3.org/1999/xlink" width="1754pt" height="476pt" viewBox="0.00 0.00 1754.22 476.00">
<g id="graph0" class="graph" transform="scale(1 1) rotate(0) translate(4 472)">
<title>pinot</title>
<polygon fill="#ffffff" stroke="transparent" points="-4,4 -4,-472 1750.2174,-472 1750.2174,4 -4,4"/>
<!-- org.apache.pinot:pinot&#45;common:jar:compile -->
<g id="node1" class="node">
<title>org.apache.pinot:pinot-common:jar:compile</title>
<path fill="none" stroke="#000000" d="M797.2768,-108C797.2768,-108 716.9266,-108 716.9266,-108 710.9266,-108 704.9266,-102 704.9266,-96 704.9266,-96 704.9266,-84 704.9266,-84 704.9266,-78 710.9266,-72 716.9266,-72 716.9266,-72 797.2768,-72 797.2768,-72 803.2768,-72 809.2768,-78 809.2768,-84 809.2768,-84 809.2768,-96 809.2768,-96 809.2768,-102 803.2768,-108 797.2768,-108"/>
<text text-anchor="start" x="712.7644" y="-85.8" font-family="Helvetica,sans-Serif" font-size="14.00" fill="#000000">pinot-common</text>
</g>
<!-- org.apache.pinot:pinot&#45;spi:jar:compile -->
<g id="node2" class="node">
<title>org.apache.pinot:pinot-spi:jar:compile</title>
<path fill="none" stroke="#000000" d="M779.4966,-36C779.4966,-36 734.7068,-36 734.7068,-36 728.7068,-36 722.7068,-30 722.7068,-24 722.7068,-24 722.7068,-12 722.7068,-12 722.7068,-6 728.7068,0 734.7068,0 734.7068,0 779.4966,0 779.4966,0 785.4966,0 791.4966,-6 791.4966,-12 791.4966,-12 791.4966,-24 791.4966,-24 791.4966,-30 785.4966,-36 779.4966,-36"/>
<text text-anchor="start" x="730.6543" y="-13.8" font-family="Helvetica,sans-Serif" font-size="14.00" fill="#000000">pinot-spi</text>
</g>
<!-- org.apache.pinot:pinot&#45;common:jar:compile&#45;&gt;org.apache.pinot:pinot&#45;spi:jar:compile -->
<g id="edge1" class="edge">
<title>org.apache.pinot:pinot-common:jar:compile-&gt;org.apache.pinot:pinot-spi:jar:compile</title>
<path fill="none" stroke="#000000" d="M757.1017,-71.8314C757.1017,-64.131 757.1017,-54.9743 757.1017,-46.4166"/>
<polygon fill="#000000" stroke="#000000" points="760.6018,-46.4132 757.1017,-36.4133 753.6018,-46.4133 760.6018,-46.4132"/>
</g>
<!-- org.apache.pinot:pinot&#45;transport:jar:compile -->
<g id="node3" class="node">
<title>org.apache.pinot:pinot-transport:jar:compile</title>
<path fill="none" stroke="#000000" d="M1201.3403,-180C1201.3403,-180 1118.863,-180 1118.863,-180 1112.863,-180 1106.863,-174 1106.863,-168 1106.863,-168 1106.863,-156 1106.863,-156 1106.863,-150 1112.863,-144 1118.863,-144 1118.863,-144 1201.3403,-144 1201.3403,-144 1207.3403,-144 1213.3403,-150 1213.3403,-156 1213.3403,-156 1213.3403,-168 1213.3403,-168 1213.3403,-174 1207.3403,-180 1201.3403,-180"/>
<text text-anchor="start" x="1114.9825" y="-157.8" font-family="Helvetica,sans-Serif" font-size="14.00" fill="#000000">pinot-transport</text>
</g>
<!-- org.apache.pinot:pinot&#45;transport:jar:compile&#45;&gt;org.apache.pinot:pinot&#45;common:jar:compile -->
<g id="edge2" class="edge">
<title>org.apache.pinot:pinot-transport:jar:compile-&gt;org.apache.pinot:pinot-common:jar:compile</title>
<path fill="none" stroke="#000000" d="M1106.7774,-146.058C1103.8516,-145.3274 1100.9457,-144.6354 1098.1017,-144 1001.8433,-122.4945 888.4402,-106.3246 819.7043,-97.5164"/>
<polygon fill="#000000" stroke="#000000" points="819.8414,-94.0058 809.4801,-96.2184 818.9597,-100.95 819.8414,-94.0058"/>
</g>
<!-- org.apache.pinot:pinot&#45;common:test&#45;jar:tests:test -->
<g id="node4" class="node">
<title>org.apache.pinot:pinot-common:test-jar:tests:test</title>
<path fill="none" stroke="#000000" d="M1342.2768,-108C1342.2768,-108 1261.9266,-108 1261.9266,-108 1255.9266,-108 1249.9266,-102 1249.9266,-96 1249.9266,-96 1249.9266,-84 1249.9266,-84 1249.9266,-78 1255.9266,-72 1261.9266,-72 1261.9266,-72 1342.2768,-72 1342.2768,-72 1348.2768,-72 1354.2768,-78 1354.2768,-84 1354.2768,-84 1354.2768,-96 1354.2768,-96 1354.2768,-102 1348.2768,-108 1342.2768,-108"/>
<text text-anchor="start" x="1257.7644" y="-90.4" font-family="Helvetica,sans-Serif" font-size="14.00" fill="#000000">pinot-common</text>
<text text-anchor="start" x="1290.7142" y="-80" font-family="Helvetica,sans-Serif" font-size="10.00" fill="#000000">(test)</text>
</g>
<!-- org.apache.pinot:pinot&#45;transport:jar:compile&#45;&gt;org.apache.pinot:pinot&#45;common:test&#45;jar:tests:test -->
<g id="edge3" class="edge">
<title>org.apache.pinot:pinot-transport:jar:compile-&gt;org.apache.pinot:pinot-common:test-jar:tests:test</title>
<path fill="none" stroke="#000000" d="M1195.9343,-143.8314C1214.5174,-134.4089 1237.4006,-122.8062 1257.1581,-112.7883"/>
<polygon fill="#000000" stroke="#000000" points="1258.9444,-115.8069 1266.2805,-108.1628 1255.7787,-109.5635 1258.9444,-115.8069"/>
</g>
<!-- org.apache.pinot:pinot&#45;core:jar:compile -->
<g id="node5" class="node">
<title>org.apache.pinot:pinot-core:jar:compile</title>
<path fill="none" stroke="#000000" d="M1077.3334,-180C1077.3334,-180 1022.8699,-180 1022.8699,-180 1016.8699,-180 1010.8699,-174 1010.8699,-168 1010.8699,-168 1010.8699,-156 1010.8699,-156 1010.8699,-150 1016.8699,-144 1022.8699,-144 1022.8699,-144 1077.3334,-144 1077.3334,-144 1083.3334,-144 1089.3334,-150 1089.3334,-156 1089.3334,-156 1089.3334,-168 1089.3334,-168 1089.3334,-174 1083.3334,-180 1077.3334,-180"/>
<text text-anchor="start" x="1018.986" y="-157.8" font-family="Helvetica,sans-Serif" font-size="14.00" fill="#000000">pinot-core</text>
</g>
<!-- org.apache.pinot:pinot&#45;core:jar:compile&#45;&gt;org.apache.pinot:pinot&#45;common:jar:compile -->
<g id="edge4" class="edge">
<title>org.apache.pinot:pinot-core:jar:compile-&gt;org.apache.pinot:pinot-common:jar:compile</title>
<path fill="none" stroke="#000000" d="M1010.8904,-152.3645C961.8031,-140.3021 877.1419,-119.4979 819.2054,-105.261"/>
<polygon fill="#000000" stroke="#000000" points="819.9771,-101.8466 809.4307,-102.859 818.3066,-108.6443 819.9771,-101.8466"/>
</g>
<!-- org.apache.pinot:pinot&#45;core:jar:compile&#45;&gt;org.apache.pinot:pinot&#45;common:test&#45;jar:tests:test -->
<g id="edge5" class="edge">
<title>org.apache.pinot:pinot-core:jar:compile-&gt;org.apache.pinot:pinot-common:test-jar:tests:test</title>
<path fill="none" stroke="#000000" d="M1089.2826,-146.9428C1092.255,-145.9124 1095.2188,-144.9196 1098.1017,-144 1145.1796,-128.9834 1199.2785,-114.8004 1239.9316,-104.7411"/>
<polygon fill="#000000" stroke="#000000" points="1240.8267,-108.1254 1249.7017,-102.3388 1239.1552,-101.3278 1240.8267,-108.1254"/>
</g>
<!-- org.apache.pinot:pinot&#45;server:jar:compile -->
<g id="node6" class="node">
<title>org.apache.pinot:pinot-server:jar:compile</title>
<path fill="none" stroke="#000000" d="M1317.9937,-252C1317.9937,-252 1252.2096,-252 1252.2096,-252 1246.2096,-252 1240.2096,-246 1240.2096,-240 1240.2096,-240 1240.2096,-228 1240.2096,-228 1240.2096,-222 1246.2096,-216 1252.2096,-216 1252.2096,-216 1317.9937,-216 1317.9937,-216 1323.9937,-216 1329.9937,-222 1329.9937,-228 1329.9937,-228 1329.9937,-240 1329.9937,-240 1329.9937,-246 1323.9937,-252 1317.9937,-252"/>
<text text-anchor="start" x="1248.1557" y="-229.8" font-family="Helvetica,sans-Serif" font-size="14.00" fill="#000000">pinot-server</text>
</g>
<!-- org.apache.pinot:pinot&#45;server:jar:compile&#45;&gt;org.apache.pinot:pinot&#45;transport:jar:compile -->
<g id="edge8" class="edge">
<title>org.apache.pinot:pinot-server:jar:compile-&gt;org.apache.pinot:pinot-transport:jar:compile</title>
<path fill="none" stroke="#000000" d="M1253.5589,-215.8314C1237.4226,-206.5368 1217.6031,-195.1208 1200.3744,-185.1971"/>
<polygon fill="#000000" stroke="#000000" points="1202.0466,-182.1212 1191.6344,-180.1628 1198.5527,-188.187 1202.0466,-182.1212"/>
</g>
<!-- org.apache.pinot:pinot&#45;server:jar:compile&#45;&gt;org.apache.pinot:pinot&#45;core:jar:compile -->
<g id="edge6" class="edge">
<title>org.apache.pinot:pinot-server:jar:compile-&gt;org.apache.pinot:pinot-core:jar:compile</title>
<path fill="none" stroke="#000000" d="M1240.0821,-218.7787C1237.0489,-217.8195 1234.0345,-216.8849 1231.1017,-216 1175.4513,-199.2084 1158.1348,-198.7719 1099.1287,-180.1836"/>
<polygon fill="#000000" stroke="#000000" points="1099.8793,-176.7491 1089.2884,-177.0391 1097.7485,-183.417 1099.8793,-176.7491"/>
</g>
<!-- org.apache.pinot:pinot&#45;core:test&#45;jar:tests:test -->
<g id="node7" class="node">
<title>org.apache.pinot:pinot-core:test-jar:tests:test</title>
<path fill="none" stroke="#000000" d="M1010.3334,-108C1010.3334,-108 955.8699,-108 955.8699,-108 949.8699,-108 943.8699,-102 943.8699,-96 943.8699,-96 943.8699,-84 943.8699,-84 943.8699,-78 949.8699,-72 955.8699,-72 955.8699,-72 1010.3334,-72 1010.3334,-72 1016.3334,-72 1022.3334,-78 1022.3334,-84 1022.3334,-84 1022.3334,-96 1022.3334,-96 1022.3334,-102 1016.3334,-108 1010.3334,-108"/>
<text text-anchor="start" x="951.986" y="-90.4" font-family="Helvetica,sans-Serif" font-size="14.00" fill="#000000">pinot-core</text>
<text text-anchor="start" x="971.7142" y="-80" font-family="Helvetica,sans-Serif" font-size="10.00" fill="#000000">(test)</text>
</g>
<!-- org.apache.pinot:pinot&#45;server:jar:compile&#45;&gt;org.apache.pinot:pinot&#45;core:test&#45;jar:tests:test -->
<g id="edge7" class="edge">
<title>org.apache.pinot:pinot-server:jar:compile-&gt;org.apache.pinot:pinot-core:test-jar:tests:test</title>
<path fill="none" stroke="#000000" d="M1240.1832,-218.4074C1237.1256,-217.5379 1234.0782,-216.7247 1231.1017,-216 1181.0501,-203.8131 1039.4644,-215.4642 1002.1017,-180 985.6075,-164.3439 981.5845,-138.2563 981.2619,-118.1873"/>
<polygon fill="#000000" stroke="#000000" points="984.7634,-118.0908 981.3956,-108.0455 977.764,-117.9984 984.7634,-118.0908"/>
</g>
<!-- org.apache.pinot:pinot&#45;controller:jar:compile -->
<g id="node8" class="node">
<title>org.apache.pinot:pinot-controller:jar:compile</title>
<path fill="none" stroke="#000000" d="M1609.1636,-252C1609.1636,-252 1525.0398,-252 1525.0398,-252 1519.0398,-252 1513.0398,-246 1513.0398,-240 1513.0398,-240 1513.0398,-228 1513.0398,-228 1513.0398,-222 1519.0398,-216 1525.0398,-216 1525.0398,-216 1609.1636,-216 1609.1636,-216 1615.1636,-216 1621.1636,-222 1621.1636,-228 1621.1636,-228 1621.1636,-240 1621.1636,-240 1621.1636,-246 1615.1636,-252 1609.1636,-252"/>
<text text-anchor="start" x="1520.8212" y="-229.8" font-family="Helvetica,sans-Serif" font-size="14.00" fill="#000000">pinot-controller</text>
</g>
<!-- org.apache.pinot:pinot&#45;controller:jar:compile&#45;&gt;org.apache.pinot:pinot&#45;common:test&#45;jar:tests:test -->
<g id="edge13" class="edge">
<title>org.apache.pinot:pinot-controller:jar:compile-&gt;org.apache.pinot:pinot-common:test-jar:tests:test</title>
<path fill="none" stroke="#000000" d="M1590.893,-215.9793C1613.1373,-196.9706 1640.2711,-166.6871 1621.1017,-144 1604.7338,-124.6286 1452.6991,-105.714 1364.5604,-96.2526"/>
<polygon fill="#000000" stroke="#000000" points="1364.7178,-92.7497 1354.404,-95.1738 1363.9783,-99.7106 1364.7178,-92.7497"/>
</g>
<!-- org.apache.pinot:pinot&#45;controller:jar:compile&#45;&gt;org.apache.pinot:pinot&#45;core:jar:compile -->
<g id="edge9" class="edge">
<title>org.apache.pinot:pinot-controller:jar:compile-&gt;org.apache.pinot:pinot-core:jar:compile</title>
<path fill="none" stroke="#000000" d="M1513.0264,-221.142C1503.7482,-219.2196 1494.1747,-217.4123 1485.1017,-216 1317.665,-189.9368 1268.3315,-217.5752 1099.375,-179.9491"/>
<polygon fill="#000000" stroke="#000000" points="1099.9252,-176.485 1089.3983,-177.6832 1098.3748,-183.3111 1099.9252,-176.485"/>
</g>
<!-- org.apache.pinot:pinot&#45;core:test&#45;jar:tests:compile -->
<g id="node9" class="node">
<title>org.apache.pinot:pinot-core:test-jar:tests:compile</title>
<path fill="none" stroke="#000000" d="M1734.3334,-180C1734.3334,-180 1679.8699,-180 1679.8699,-180 1673.8699,-180 1667.8699,-174 1667.8699,-168 1667.8699,-168 1667.8699,-156 1667.8699,-156 1667.8699,-150 1673.8699,-144 1679.8699,-144 1679.8699,-144 1734.3334,-144 1734.3334,-144 1740.3334,-144 1746.3334,-150 1746.3334,-156 1746.3334,-156 1746.3334,-168 1746.3334,-168 1746.3334,-174 1740.3334,-180 1734.3334,-180"/>
<text text-anchor="start" x="1675.986" y="-157.8" font-family="Helvetica,sans-Serif" font-size="14.00" fill="#000000">pinot-core</text>
</g>
<!-- org.apache.pinot:pinot&#45;controller:jar:compile&#45;&gt;org.apache.pinot:pinot&#45;core:test&#45;jar:tests:compile -->
<g id="edge10" class="edge">
<title>org.apache.pinot:pinot-controller:jar:compile-&gt;org.apache.pinot:pinot-core:test-jar:tests:compile</title>
<path fill="none" stroke="#000000" d="M1602.4296,-215.8314C1620.751,-206.4089 1643.3118,-194.8062 1662.7911,-184.7883"/>
<polygon fill="#000000" stroke="#000000" points="1664.4929,-187.8489 1671.7851,-180.1628 1661.2914,-181.6239 1664.4929,-187.8489"/>
</g>
<!-- org.apache.pinot:pinot&#45;server:jar:test -->
<g id="node10" class="node">
<title>org.apache.pinot:pinot-server:jar:test</title>
<path fill="none" stroke="#000000" d="M1599.9937,-180C1599.9937,-180 1534.2096,-180 1534.2096,-180 1528.2096,-180 1522.2096,-174 1522.2096,-168 1522.2096,-168 1522.2096,-156 1522.2096,-156 1522.2096,-150 1528.2096,-144 1534.2096,-144 1534.2096,-144 1599.9937,-144 1599.9937,-144 1605.9937,-144 1611.9937,-150 1611.9937,-156 1611.9937,-156 1611.9937,-168 1611.9937,-168 1611.9937,-174 1605.9937,-180 1599.9937,-180"/>
<text text-anchor="start" x="1530.1557" y="-162.4" font-family="Helvetica,sans-Serif" font-size="14.00" fill="#000000">pinot-server</text>
<text text-anchor="start" x="1555.7142" y="-152" font-family="Helvetica,sans-Serif" font-size="10.00" fill="#000000">(test)</text>
</g>
<!-- org.apache.pinot:pinot&#45;controller:jar:compile&#45;&gt;org.apache.pinot:pinot&#45;server:jar:test -->
<g id="edge12" class="edge">
<title>org.apache.pinot:pinot-controller:jar:compile-&gt;org.apache.pinot:pinot-server:jar:test</title>
<path fill="none" stroke="#000000" d="M1567.1017,-215.8314C1567.1017,-208.131 1567.1017,-198.9743 1567.1017,-190.4166"/>
<polygon fill="#000000" stroke="#000000" points="1570.6018,-190.4132 1567.1017,-180.4133 1563.6018,-190.4133 1570.6018,-190.4132"/>
</g>
<!-- org.apache.pinot:pinot&#45;transport:jar:test -->
<g id="node11" class="node">
<title>org.apache.pinot:pinot-transport:jar:test</title>
<path fill="none" stroke="#000000" d="M1608.3403,-108C1608.3403,-108 1525.863,-108 1525.863,-108 1519.863,-108 1513.863,-102 1513.863,-96 1513.863,-96 1513.863,-84 1513.863,-84 1513.863,-78 1519.863,-72 1525.863,-72 1525.863,-72 1608.3403,-72 1608.3403,-72 1614.3403,-72 1620.3403,-78 1620.3403,-84 1620.3403,-84 1620.3403,-96 1620.3403,-96 1620.3403,-102 1614.3403,-108 1608.3403,-108"/>
<text text-anchor="start" x="1521.9825" y="-90.4" font-family="Helvetica,sans-Serif" font-size="14.00" fill="#000000">pinot-transport</text>
<text text-anchor="start" x="1555.7142" y="-80" font-family="Helvetica,sans-Serif" font-size="10.00" fill="#000000">(test)</text>
</g>
<!-- org.apache.pinot:pinot&#45;server:jar:test&#45;&gt;org.apache.pinot:pinot&#45;transport:jar:test -->
<g id="edge11" class="edge">
<title>org.apache.pinot:pinot-server:jar:test-&gt;org.apache.pinot:pinot-transport:jar:test</title>
<path fill="none" stroke="#000000" d="M1567.1017,-143.8314C1567.1017,-136.131 1567.1017,-126.9743 1567.1017,-118.4166"/>
<polygon fill="#000000" stroke="#000000" points="1570.6018,-118.4132 1567.1017,-108.4133 1563.6018,-118.4133 1570.6018,-118.4132"/>
</g>
<!-- org.apache.pinot:pinot&#45;broker:jar:compile -->
<g id="node12" class="node">
<title>org.apache.pinot:pinot-broker:jar:compile</title>
<path fill="none" stroke="#000000" d="M1464.2769,-252C1464.2769,-252 1397.9265,-252 1397.9265,-252 1391.9265,-252 1385.9265,-246 1385.9265,-240 1385.9265,-240 1385.9265,-228 1385.9265,-228 1385.9265,-222 1391.9265,-216 1397.9265,-216 1397.9265,-216 1464.2769,-216 1464.2769,-216 1470.2769,-216 1476.2769,-222 1476.2769,-228 1476.2769,-228 1476.2769,-240 1476.2769,-240 1476.2769,-246 1470.2769,-252 1464.2769,-252"/>
<text text-anchor="start" x="1393.7644" y="-229.8" font-family="Helvetica,sans-Serif" font-size="14.00" fill="#000000">pinot-broker</text>
</g>
<!-- org.apache.pinot:pinot&#45;broker:jar:compile&#45;&gt;org.apache.pinot:pinot&#45;transport:jar:compile -->
<g id="edge14" class="edge">
<title>org.apache.pinot:pinot-broker:jar:compile-&gt;org.apache.pinot:pinot-transport:jar:compile</title>
<path fill="none" stroke="#000000" d="M1385.764,-219.8654C1381.16,-218.521 1376.5449,-217.2098 1372.1017,-216 1308.9217,-198.7977 1290.051,-197.6362 1223.2458,-180.2389"/>
<polygon fill="#000000" stroke="#000000" points="1224.053,-176.8323 1213.4916,-177.673 1222.2721,-183.602 1224.053,-176.8323"/>
</g>
<!-- org.apache.pinot:pinot&#45;broker:jar:compile&#45;&gt;org.apache.pinot:pinot&#45;common:test&#45;jar:tests:test -->
<g id="edge19" class="edge">
<title>org.apache.pinot:pinot-broker:jar:compile-&gt;org.apache.pinot:pinot-common:test-jar:tests:test</title>
<path fill="none" stroke="#000000" d="M1451.2943,-215.6889C1469.7408,-196.7095 1491.7948,-166.6981 1475.1017,-144 1461.6271,-125.6783 1408.2013,-110.829 1364.2432,-101.373"/>
<polygon fill="#000000" stroke="#000000" points="1364.9588,-97.947 1354.4534,-99.321 1363.5226,-104.7981 1364.9588,-97.947"/>
</g>
<!-- org.apache.pinot:pinot&#45;broker:jar:compile&#45;&gt;org.apache.pinot:pinot&#45;core:jar:compile -->
<g id="edge15" class="edge">
<title>org.apache.pinot:pinot-broker:jar:compile-&gt;org.apache.pinot:pinot-core:jar:compile</title>
<path fill="none" stroke="#000000" d="M1385.883,-219.3781C1381.2554,-218.1305 1376.6022,-216.9751 1372.1017,-216 1255.2279,-190.6763 1219.1612,-208.7461 1099.3493,-180.0002"/>
<polygon fill="#000000" stroke="#000000" points="1099.9744,-176.5497 1089.4278,-177.56 1098.3025,-183.3472 1099.9744,-176.5497"/>
</g>
<!-- org.apache.pinot:pinot&#45;broker:jar:compile&#45;&gt;org.apache.pinot:pinot&#45;server:jar:test -->
<g id="edge18" class="edge">
<title>org.apache.pinot:pinot-broker:jar:compile-&gt;org.apache.pinot:pinot-server:jar:test</title>
<path fill="none" stroke="#000000" d="M1465.4202,-215.8314C1483.1376,-206.4516 1504.9361,-194.9112 1523.8001,-184.9244"/>
<polygon fill="#000000" stroke="#000000" points="1525.5938,-187.935 1532.7941,-180.1628 1522.3186,-181.7485 1525.5938,-187.935"/>
</g>
<!-- org.apache.pinot:pinot&#45;controller:jar:test -->
<g id="node13" class="node">
<title>org.apache.pinot:pinot-controller:jar:test</title>
<path fill="none" stroke="#000000" d="M1454.1636,-180C1454.1636,-180 1370.0398,-180 1370.0398,-180 1364.0398,-180 1358.0398,-174 1358.0398,-168 1358.0398,-168 1358.0398,-156 1358.0398,-156 1358.0398,-150 1364.0398,-144 1370.0398,-144 1370.0398,-144 1454.1636,-144 1454.1636,-144 1460.1636,-144 1466.1636,-150 1466.1636,-156 1466.1636,-156 1466.1636,-168 1466.1636,-168 1466.1636,-174 1460.1636,-180 1454.1636,-180"/>
<text text-anchor="start" x="1365.8212" y="-162.4" font-family="Helvetica,sans-Serif" font-size="14.00" fill="#000000">pinot-controller</text>
<text text-anchor="start" x="1400.7142" y="-152" font-family="Helvetica,sans-Serif" font-size="10.00" fill="#000000">(test)</text>
</g>
<!-- org.apache.pinot:pinot&#45;broker:jar:compile&#45;&gt;org.apache.pinot:pinot&#45;controller:jar:test -->
<g id="edge17" class="edge">
<title>org.apache.pinot:pinot-broker:jar:compile-&gt;org.apache.pinot:pinot-controller:jar:test</title>
<path fill="none" stroke="#000000" d="M1426.3072,-215.8314C1424.2528,-208.0463 1421.8056,-198.7729 1419.5261,-190.1347"/>
<polygon fill="#000000" stroke="#000000" points="1422.8965,-189.1892 1416.9607,-180.4133 1416.1282,-190.9753 1422.8965,-189.1892"/>
</g>
<!-- org.apache.pinot:pinot&#45;controller:test&#45;jar:tests:test -->
<g id="node14" class="node">
<title>org.apache.pinot:pinot-controller:test-jar:tests:test</title>
<path fill="none" stroke="#000000" d="M1327.1636,-180C1327.1636,-180 1243.0398,-180 1243.0398,-180 1237.0398,-180 1231.0398,-174 1231.0398,-168 1231.0398,-168 1231.0398,-156 1231.0398,-156 1231.0398,-150 1237.0398,-144 1243.0398,-144 1243.0398,-144 1327.1636,-144 1327.1636,-144 1333.1636,-144 1339.1636,-150 1339.1636,-156 1339.1636,-156 1339.1636,-168 1339.1636,-168 1339.1636,-174 1333.1636,-180 1327.1636,-180"/>
<text text-anchor="start" x="1238.8212" y="-162.4" font-family="Helvetica,sans-Serif" font-size="14.00" fill="#000000">pinot-controller</text>
<text text-anchor="start" x="1273.7142" y="-152" font-family="Helvetica,sans-Serif" font-size="10.00" fill="#000000">(test)</text>
</g>
<!-- org.apache.pinot:pinot&#45;broker:jar:compile&#45;&gt;org.apache.pinot:pinot&#45;controller:test&#45;jar:tests:test -->
<g id="edge20" class="edge">
<title>org.apache.pinot:pinot-broker:jar:compile-&gt;org.apache.pinot:pinot-controller:test-jar:tests:test</title>
<path fill="none" stroke="#000000" d="M1394.2597,-215.8314C1374.9934,-206.3302 1351.2317,-194.6121 1330.8025,-184.5374"/>
<polygon fill="#000000" stroke="#000000" points="1332.1955,-181.3219 1321.6787,-180.038 1329.0994,-187.6 1332.1955,-181.3219"/>
</g>
<!-- org.apache.pinot:pinot&#45;controller:jar:test&#45;&gt;org.apache.pinot:pinot&#45;core:test&#45;jar:tests:test -->
<g id="edge16" class="edge">
<title>org.apache.pinot:pinot-controller:jar:test-&gt;org.apache.pinot:pinot-core:test-jar:tests:test</title>
<path fill="none" stroke="#000000" d="M1357.7518,-146.206C1354.4969,-145.4183 1351.2621,-144.6754 1348.1017,-144 1236.3803,-120.1263 1103.1755,-103.3082 1032.6427,-95.3018"/>
<polygon fill="#000000" stroke="#000000" points="1032.6154,-91.7768 1022.2872,-94.1386 1031.834,-98.733 1032.6154,-91.7768"/>
</g>
<!-- org.apache.pinot:pinot&#45;common:jar:provided -->
<g id="node15" class="node">
<title>org.apache.pinot:pinot-common:jar:provided</title>
<path fill="none" stroke="#000000" d="M523.2768,-108C523.2768,-108 442.9266,-108 442.9266,-108 436.9266,-108 430.9266,-102 430.9266,-96 430.9266,-96 430.9266,-84 430.9266,-84 430.9266,-78 436.9266,-72 442.9266,-72 442.9266,-72 523.2768,-72 523.2768,-72 529.2768,-72 535.2768,-78 535.2768,-84 535.2768,-84 535.2768,-96 535.2768,-96 535.2768,-102 529.2768,-108 523.2768,-108"/>
<text text-anchor="start" x="438.7644" y="-90.4" font-family="Helvetica,sans-Serif" font-size="14.00" fill="#000000">pinot-common</text>
<text text-anchor="start" x="460.6012" y="-80" font-family="Helvetica,sans-Serif" font-size="10.00" fill="#000000">(provided)</text>
</g>
<!-- org.apache.pinot:pinot&#45;spi:jar:provided -->
<g id="node16" class="node">
<title>org.apache.pinot:pinot-spi:jar:provided</title>
<path fill="none" stroke="#000000" d="M505.4966,-36C505.4966,-36 460.7068,-36 460.7068,-36 454.7068,-36 448.7068,-30 448.7068,-24 448.7068,-24 448.7068,-12 448.7068,-12 448.7068,-6 454.7068,0 460.7068,0 460.7068,0 505.4966,0 505.4966,0 511.4966,0 517.4966,-6 517.4966,-12 517.4966,-12 517.4966,-24 517.4966,-24 517.4966,-30 511.4966,-36 505.4966,-36"/>
<text text-anchor="start" x="456.6543" y="-18.4" font-family="Helvetica,sans-Serif" font-size="14.00" fill="#000000">pinot-spi</text>
<text text-anchor="start" x="460.6012" y="-8" font-family="Helvetica,sans-Serif" font-size="10.00" fill="#000000">(provided)</text>
</g>
<!-- org.apache.pinot:pinot&#45;common:jar:provided&#45;&gt;org.apache.pinot:pinot&#45;spi:jar:provided -->
<g id="edge21" class="edge">
<title>org.apache.pinot:pinot-common:jar:provided-&gt;org.apache.pinot:pinot-spi:jar:provided</title>
<path fill="none" stroke="#000000" d="M483.1017,-71.8314C483.1017,-64.131 483.1017,-54.9743 483.1017,-46.4166"/>
<polygon fill="#000000" stroke="#000000" points="486.6018,-46.4132 483.1017,-36.4133 479.6018,-46.4133 486.6018,-46.4132"/>
</g>
<!-- org.apache.pinot:pinot&#45;ingestion&#45;common:jar:compile -->
<g id="node17" class="node">
<title>org.apache.pinot:pinot-ingestion-common:jar:compile</title>
<path fill="none" stroke="#000000" d="M417.9541,-180C417.9541,-180 276.2493,-180 276.2493,-180 270.2493,-180 264.2493,-174 264.2493,-168 264.2493,-168 264.2493,-156 264.2493,-156 264.2493,-150 270.2493,-144 276.2493,-144 276.2493,-144 417.9541,-144 417.9541,-144 423.9541,-144 429.9541,-150 429.9541,-156 429.9541,-156 429.9541,-168 429.9541,-168 429.9541,-174 423.9541,-180 417.9541,-180"/>
<text text-anchor="start" x="272.4257" y="-157.8" font-family="Helvetica,sans-Serif" font-size="14.00" fill="#000000">pinot-ingestion-common</text>
</g>
<!-- org.apache.pinot:pinot&#45;ingestion&#45;common:jar:compile&#45;&gt;org.apache.pinot:pinot&#45;common:jar:provided -->
<g id="edge22" class="edge">
<title>org.apache.pinot:pinot-ingestion-common:jar:compile-&gt;org.apache.pinot:pinot-common:jar:provided</title>
<path fill="none" stroke="#000000" d="M381.4202,-143.8314C399.1376,-134.4516 420.9361,-122.9112 439.8001,-112.9244"/>
<polygon fill="#000000" stroke="#000000" points="441.5938,-115.935 448.7941,-108.1628 438.3186,-109.7485 441.5938,-115.935"/>
</g>
<!-- org.apache.pinot:pinot&#45;core:jar:provided -->
<g id="node18" class="node">
<title>org.apache.pinot:pinot-core:jar:provided</title>
<path fill="none" stroke="#000000" d="M656.3334,-108C656.3334,-108 601.8699,-108 601.8699,-108 595.8699,-108 589.8699,-102 589.8699,-96 589.8699,-96 589.8699,-84 589.8699,-84 589.8699,-78 595.8699,-72 601.8699,-72 601.8699,-72 656.3334,-72 656.3334,-72 662.3334,-72 668.3334,-78 668.3334,-84 668.3334,-84 668.3334,-96 668.3334,-96 668.3334,-102 662.3334,-108 656.3334,-108"/>
<text text-anchor="start" x="597.986" y="-90.4" font-family="Helvetica,sans-Serif" font-size="14.00" fill="#000000">pinot-core</text>
<text text-anchor="start" x="606.6012" y="-80" font-family="Helvetica,sans-Serif" font-size="10.00" fill="#000000">(provided)</text>
</g>
<!-- org.apache.pinot:pinot&#45;ingestion&#45;common:jar:compile&#45;&gt;org.apache.pinot:pinot&#45;core:jar:provided -->
<g id="edge23" class="edge">
<title>org.apache.pinot:pinot-ingestion-common:jar:compile-&gt;org.apache.pinot:pinot-core:jar:provided</title>
<path fill="none" stroke="#000000" d="M417.8982,-143.9243C468.4078,-131.0282 535.054,-114.0122 579.8555,-102.5735"/>
<polygon fill="#000000" stroke="#000000" points="580.806,-105.9432 589.6293,-100.0781 579.0742,-99.1608 580.806,-105.9432"/>
</g>
<!-- org.apache.pinot:pinot&#45;parquet:jar:compile -->
<g id="node19" class="node">
<title>org.apache.pinot:pinot-parquet:jar:compile</title>
<path fill="none" stroke="#000000" d="M892.5726,-252C892.5726,-252 817.6308,-252 817.6308,-252 811.6308,-252 805.6308,-246 805.6308,-240 805.6308,-240 805.6308,-228 805.6308,-228 805.6308,-222 811.6308,-216 817.6308,-216 817.6308,-216 892.5726,-216 892.5726,-216 898.5726,-216 904.5726,-222 904.5726,-228 904.5726,-228 904.5726,-240 904.5726,-240 904.5726,-246 898.5726,-252 892.5726,-252"/>
<text text-anchor="start" x="813.8668" y="-229.8" font-family="Helvetica,sans-Serif" font-size="14.00" fill="#000000">pinot-parquet</text>
</g>
<!-- org.apache.pinot:pinot&#45;parquet:jar:compile&#45;&gt;org.apache.pinot:pinot&#45;core:jar:compile -->
<g id="edge24" class="edge">
<title>org.apache.pinot:pinot-parquet:jar:compile-&gt;org.apache.pinot:pinot-core:jar:compile</title>
<path fill="none" stroke="#000000" d="M904.0567,-215.9243C933.7551,-204.9587 971.5212,-191.0143 1001.2085,-180.0529"/>
<polygon fill="#000000" stroke="#000000" points="1002.7746,-183.2056 1010.9433,-176.4585 1000.35,-176.639 1002.7746,-183.2056"/>
</g>
<!-- org.apache.pinot:pinot&#45;parquet:jar:compile&#45;&gt;org.apache.pinot:pinot&#45;core:test&#45;jar:tests:test -->
<g id="edge25" class="edge">
<title>org.apache.pinot:pinot-parquet:jar:compile-&gt;org.apache.pinot:pinot-core:test-jar:tests:test</title>
<path fill="none" stroke="#000000" d="M871.313,-215.7623C893.8184,-190.4436 934.6411,-144.5182 960.2349,-115.7251"/>
<polygon fill="#000000" stroke="#000000" points="962.9943,-117.889 967.022,-108.0896 957.7624,-113.2385 962.9943,-117.889"/>
</g>
<!-- org.apache.pinot:pinot&#45;orc:jar:compile -->
<g id="node20" class="node">
<title>org.apache.pinot:pinot-orc:jar:compile</title>
<path fill="none" stroke="#000000" d="M980.5519,-252C980.5519,-252 933.6514,-252 933.6514,-252 927.6514,-252 921.6514,-246 921.6514,-240 921.6514,-240 921.6514,-228 921.6514,-228 921.6514,-222 927.6514,-216 933.6514,-216 933.6514,-216 980.5519,-216 980.5519,-216 986.5519,-216 992.5519,-222 992.5519,-228 992.5519,-228 992.5519,-240 992.5519,-240 992.5519,-246 986.5519,-252 980.5519,-252"/>
<text text-anchor="start" x="929.8773" y="-229.8" font-family="Helvetica,sans-Serif" font-size="14.00" fill="#000000">pinot-orc</text>
</g>
<!-- org.apache.pinot:pinot&#45;orc:jar:compile&#45;&gt;org.apache.pinot:pinot&#45;core:jar:compile -->
<g id="edge26" class="edge">
<title>org.apache.pinot:pinot-orc:jar:compile-&gt;org.apache.pinot:pinot-core:jar:compile</title>
<path fill="none" stroke="#000000" d="M980.5695,-215.8314C992.1344,-206.8779 1006.2421,-195.9558 1018.72,-186.2955"/>
<polygon fill="#000000" stroke="#000000" points="1020.8767,-189.0521 1026.6414,-180.1628 1016.5915,-183.5171 1020.8767,-189.0521"/>
</g>
<!-- org.apache.pinot:pinot&#45;hadoop:jar:compile -->
<g id="node21" class="node">
<title>org.apache.pinot:pinot-hadoop:jar:compile</title>
<path fill="none" stroke="#000000" d="M920.8033,-324C920.8033,-324 847.4,-324 847.4,-324 841.4,-324 835.4,-318 835.4,-312 835.4,-312 835.4,-300 835.4,-300 835.4,-294 841.4,-288 847.4,-288 847.4,-288 920.8033,-288 920.8033,-288 926.8033,-288 932.8033,-294 932.8033,-300 932.8033,-300 932.8033,-312 932.8033,-312 932.8033,-318 926.8033,-324 920.8033,-324"/>
<text text-anchor="start" x="843.2511" y="-301.8" font-family="Helvetica,sans-Serif" font-size="14.00" fill="#000000">pinot-hadoop</text>
</g>
<!-- org.apache.pinot:pinot&#45;hadoop:jar:compile&#45;&gt;org.apache.pinot:pinot&#45;ingestion&#45;common:jar:compile -->
<g id="edge27" class="edge">
<title>org.apache.pinot:pinot-hadoop:jar:compile-&gt;org.apache.pinot:pinot-ingestion-common:jar:compile</title>
<path fill="none" stroke="#000000" d="M835.2432,-290.0291C832.1669,-289.2749 829.102,-288.5886 826.1017,-288 735.2647,-270.1791 491.4532,-297.9626 411.1017,-252 386.5671,-237.9657 369.066,-210.2492 358.6339,-189.2628"/>
<polygon fill="#000000" stroke="#000000" points="361.7736,-187.7149 354.3383,-180.1673 355.444,-190.7043 361.7736,-187.7149"/>
</g>
<!-- org.apache.pinot:pinot&#45;hadoop:jar:compile&#45;&gt;org.apache.pinot:pinot&#45;parquet:jar:compile -->
<g id="edge29" class="edge">
<title>org.apache.pinot:pinot-hadoop:jar:compile-&gt;org.apache.pinot:pinot-parquet:jar:compile</title>
<path fill="none" stroke="#000000" d="M876.7838,-287.8314C873.614,-279.9617 869.8317,-270.5712 866.3204,-261.8533"/>
<polygon fill="#000000" stroke="#000000" points="869.5009,-260.3815 862.5181,-252.4133 863.0078,-262.9968 869.5009,-260.3815"/>
</g>
<!-- org.apache.pinot:pinot&#45;hadoop:jar:compile&#45;&gt;org.apache.pinot:pinot&#45;orc:jar:compile -->
<g id="edge30" class="edge">
<title>org.apache.pinot:pinot-hadoop:jar:compile-&gt;org.apache.pinot:pinot-orc:jar:compile</title>
<path fill="none" stroke="#000000" d="M902.5227,-287.8314C911.2546,-279.219 921.8334,-268.7851 931.344,-259.4048"/>
<polygon fill="#000000" stroke="#000000" points="934.0247,-261.6769 938.6866,-252.1628 929.1091,-256.6931 934.0247,-261.6769"/>
</g>
<!-- org.apache.pinot:pinot&#45;common:jar:shaded:compile -->
<g id="node22" class="node">
<title>org.apache.pinot:pinot-common:jar:shaded:compile</title>
<path fill="none" stroke="#000000" d="M352.2768,-252C352.2768,-252 271.9266,-252 271.9266,-252 265.9266,-252 259.9266,-246 259.9266,-240 259.9266,-240 259.9266,-228 259.9266,-228 259.9266,-222 265.9266,-216 271.9266,-216 271.9266,-216 352.2768,-216 352.2768,-216 358.2768,-216 364.2768,-222 364.2768,-228 364.2768,-228 364.2768,-240 364.2768,-240 364.2768,-246 358.2768,-252 352.2768,-252"/>
<text text-anchor="start" x="267.7644" y="-229.8" font-family="Helvetica,sans-Serif" font-size="14.00" fill="#000000">pinot-common</text>
</g>
<!-- org.apache.pinot:pinot&#45;hadoop:jar:compile&#45;&gt;org.apache.pinot:pinot&#45;common:jar:shaded:compile -->
<g id="edge28" class="edge">
<title>org.apache.pinot:pinot-hadoop:jar:compile-&gt;org.apache.pinot:pinot-common:jar:shaded:compile</title>
<path fill="none" stroke="#000000" d="M835.2475,-290.0066C832.1702,-289.258 829.1039,-288.5791 826.1017,-288 629.9643,-250.1665 574.8653,-286.4281 378.1017,-252 376.8513,-251.7812 375.5904,-251.5493 374.3218,-251.3058"/>
<polygon fill="#000000" stroke="#000000" points="375.0062,-247.8733 364.4993,-249.2357 373.5625,-254.7228 375.0062,-247.8733"/>
</g>
<!-- org.apache.pinot:pinot&#45;spark:jar:compile -->
<g id="node23" class="node">
<title>org.apache.pinot:pinot-spark:jar:compile</title>
<path fill="none" stroke="#000000" d="M413.8334,-324C413.8334,-324 352.37,-324 352.37,-324 346.37,-324 340.37,-318 340.37,-312 340.37,-312 340.37,-300 340.37,-300 340.37,-294 346.37,-288 352.37,-288 352.37,-288 413.8334,-288 413.8334,-288 419.8334,-288 425.8334,-294 425.8334,-300 425.8334,-300 425.8334,-312 425.8334,-312 425.8334,-318 419.8334,-324 413.8334,-324"/>
<text text-anchor="start" x="348.486" y="-301.8" font-family="Helvetica,sans-Serif" font-size="14.00" fill="#000000">pinot-spark</text>
</g>
<!-- org.apache.pinot:pinot&#45;spark:jar:compile&#45;&gt;org.apache.pinot:pinot&#45;ingestion&#45;common:jar:compile -->
<g id="edge31" class="edge">
<title>org.apache.pinot:pinot-spark:jar:compile-&gt;org.apache.pinot:pinot-ingestion-common:jar:compile</title>
<path fill="none" stroke="#000000" d="M340.1859,-300.9073C309.712,-294.8012 270.8372,-281.3967 251.1017,-252 242.1834,-238.716 243.0241,-229.8114 251.1017,-216 258.7102,-202.9907 270.7327,-192.8734 283.7303,-185.1006"/>
<polygon fill="#000000" stroke="#000000" points="285.7679,-187.9743 292.8421,-180.0872 282.3935,-181.8413 285.7679,-187.9743"/>
</g>
<!-- org.apache.pinot:pinot&#45;spark:jar:compile&#45;&gt;org.apache.pinot:pinot&#45;parquet:jar:compile -->
<g id="edge33" class="edge">
<title>org.apache.pinot:pinot-spark:jar:compile-&gt;org.apache.pinot:pinot-parquet:jar:compile</title>
<path fill="none" stroke="#000000" d="M425.8257,-299.5806C449.7167,-296.0457 480.046,-291.6485 507.1017,-288 632.246,-271.1242 667.7861,-278.596 795.8946,-251.8254"/>
<polygon fill="#000000" stroke="#000000" points="796.6316,-255.247 805.6891,-249.7503 795.1808,-248.399 796.6316,-255.247"/>
</g>
<!-- org.apache.pinot:pinot&#45;spark:jar:compile&#45;&gt;org.apache.pinot:pinot&#45;orc:jar:compile -->
<g id="edge34" class="edge">
<title>org.apache.pinot:pinot-spark:jar:compile-&gt;org.apache.pinot:pinot-orc:jar:compile</title>
<path fill="none" stroke="#000000" d="M425.7786,-299.2059C449.6551,-295.5556 479.9856,-291.1678 507.1017,-288 683.7798,-267.3598 735.2213,-293.7867 911.9789,-251.862"/>
<polygon fill="#000000" stroke="#000000" points="912.9635,-255.225 921.8641,-249.4778 911.3222,-248.4201 912.9635,-255.225"/>
</g>
<!-- org.apache.pinot:pinot&#45;spark:jar:compile&#45;&gt;org.apache.pinot:pinot&#45;common:jar:shaded:compile -->
<g id="edge32" class="edge">
<title>org.apache.pinot:pinot-spark:jar:compile-&gt;org.apache.pinot:pinot-common:jar:shaded:compile</title>
<path fill="none" stroke="#000000" d="M365.1854,-287.8314C356.7575,-279.2848 346.5607,-268.9443 337.3657,-259.6198"/>
<polygon fill="#000000" stroke="#000000" points="339.7728,-257.0761 330.2592,-252.4133 334.7886,-261.9912 339.7728,-257.0761"/>
</g>
<!-- org.apache.pinot:pinot&#45;connector&#45;kafka&#45;base:jar:compile -->
<g id="node24" class="node">
<title>org.apache.pinot:pinot-connector-kafka-base:jar:compile</title>
<path fill="none" stroke="#000000" d="M841.6967,-180C841.6967,-180 680.5066,-180 680.5066,-180 674.5066,-180 668.5066,-174 668.5066,-168 668.5066,-168 668.5066,-156 668.5066,-156 668.5066,-150 674.5066,-144 680.5066,-144 680.5066,-144 841.6967,-144 841.6967,-144 847.6967,-144 853.6967,-150 853.6967,-156 853.6967,-156 853.6967,-168 853.6967,-168 853.6967,-174 847.6967,-180 841.6967,-180"/>
<text text-anchor="start" x="676.3044" y="-157.8" font-family="Helvetica,sans-Serif" font-size="14.00" fill="#000000">pinot-connector-kafka-base</text>
</g>
<!-- org.apache.pinot:pinot&#45;connector&#45;kafka&#45;base:jar:compile&#45;&gt;org.apache.pinot:pinot&#45;common:jar:provided -->
<g id="edge35" class="edge">
<title>org.apache.pinot:pinot-connector-kafka-base:jar:compile-&gt;org.apache.pinot:pinot-common:jar:provided</title>
<path fill="none" stroke="#000000" d="M691.3094,-143.9243C646.3957,-132.292 588.5393,-117.3076 545.2186,-106.0878"/>
<polygon fill="#000000" stroke="#000000" points="545.931,-102.6569 535.3729,-103.5379 544.1759,-109.4333 545.931,-102.6569"/>
</g>
<!-- org.apache.pinot:pinot&#45;connector&#45;kafka&#45;base:jar:compile&#45;&gt;org.apache.pinot:pinot&#45;core:jar:provided -->
<g id="edge36" class="edge">
<title>org.apache.pinot:pinot-connector-kafka-base:jar:compile-&gt;org.apache.pinot:pinot-core:jar:provided</title>
<path fill="none" stroke="#000000" d="M727.7925,-143.8314C710.6744,-134.4942 689.6311,-123.016 671.3795,-113.0606"/>
<polygon fill="#000000" stroke="#000000" points="672.8552,-109.8788 662.4002,-108.1628 669.5032,-116.024 672.8552,-109.8788"/>
</g>
<!-- org.apache.pinot:pinot&#45;connector&#45;kafka&#45;0.9:jar:compile -->
<g id="node25" class="node">
<title>org.apache.pinot:pinot-connector-kafka-0.9:jar:compile</title>
<path fill="none" stroke="#000000" d="M582.3045,-252C582.3045,-252 431.8988,-252 431.8988,-252 425.8988,-252 419.8988,-246 419.8988,-240 419.8988,-240 419.8988,-228 419.8988,-228 419.8988,-222 425.8988,-216 431.8988,-216 431.8988,-216 582.3045,-216 582.3045,-216 588.3045,-216 594.3045,-222 594.3045,-228 594.3045,-228 594.3045,-240 594.3045,-240 594.3045,-246 588.3045,-252 582.3045,-252"/>
<text text-anchor="start" x="427.7504" y="-229.8" font-family="Helvetica,sans-Serif" font-size="14.00" fill="#000000">pinot-connector-kafka-0.9</text>
</g>
<!-- org.apache.pinot:pinot&#45;connector&#45;kafka&#45;0.9:jar:compile&#45;&gt;org.apache.pinot:pinot&#45;connector&#45;kafka&#45;base:jar:compile -->
<g id="edge37" class="edge">
<title>org.apache.pinot:pinot-connector-kafka-0.9:jar:compile-&gt;org.apache.pinot:pinot-connector-kafka-base:jar:compile</title>
<path fill="none" stroke="#000000" d="M570.8687,-215.9243C606.3469,-205.8675 650.664,-193.3052 687.596,-182.8363"/>
<polygon fill="#000000" stroke="#000000" points="688.642,-186.1777 697.3084,-180.0831 686.7329,-179.4431 688.642,-186.1777"/>
</g>
<!-- org.apache.pinot:pinot&#45;tools:jar:compile -->
<g id="node26" class="node">
<title>org.apache.pinot:pinot-tools:jar:compile</title>
<path fill="none" stroke="#000000" d="M1019.1708,-324C1019.1708,-324 963.0325,-324 963.0325,-324 957.0325,-324 951.0325,-318 951.0325,-312 951.0325,-312 951.0325,-300 951.0325,-300 951.0325,-294 957.0325,-288 963.0325,-288 963.0325,-288 1019.1708,-288 1019.1708,-288 1025.1708,-288 1031.1708,-294 1031.1708,-300 1031.1708,-300 1031.1708,-312 1031.1708,-312 1031.1708,-318 1025.1708,-324 1019.1708,-324"/>
<text text-anchor="start" x="958.8177" y="-301.8" font-family="Helvetica,sans-Serif" font-size="14.00" fill="#000000">pinot-tools</text>
</g>
<!-- org.apache.pinot:pinot&#45;tools:jar:compile&#45;&gt;org.apache.pinot:pinot&#45;server:jar:compile -->
<g id="edge38" class="edge">
<title>org.apache.pinot:pinot-tools:jar:compile-&gt;org.apache.pinot:pinot-server:jar:compile</title>
<path fill="none" stroke="#000000" d="M1031.306,-290.6307C1034.2647,-289.6847 1037.2187,-288.7953 1040.1017,-288 1120.3659,-265.8579 1145.6703,-273.1222 1230.3745,-251.9876"/>
<polygon fill="#000000" stroke="#000000" points="1231.3347,-255.3548 1240.1569,-249.488 1229.6017,-248.5727 1231.3347,-255.3548"/>
</g>
<!-- org.apache.pinot:pinot&#45;tools:jar:compile&#45;&gt;org.apache.pinot:pinot&#45;controller:jar:compile -->
<g id="edge39" class="edge">
<title>org.apache.pinot:pinot-tools:jar:compile-&gt;org.apache.pinot:pinot-controller:jar:compile</title>
<path fill="none" stroke="#000000" d="M1031.2196,-290.2819C1034.1986,-289.4178 1037.1807,-288.6421 1040.1017,-288 1233.8984,-245.3986 1288.8588,-281.3389 1485.1017,-252 1490.8271,-251.144 1496.7498,-250.1204 1502.6707,-249.0017"/>
<polygon fill="#000000" stroke="#000000" points="1503.4655,-252.4124 1512.5984,-247.0421 1502.1099,-245.5449 1503.4655,-252.4124"/>
</g>
<!-- org.apache.pinot:pinot&#45;tools:jar:compile&#45;&gt;org.apache.pinot:pinot&#45;broker:jar:compile -->
<g id="edge40" class="edge">
<title>org.apache.pinot:pinot-tools:jar:compile-&gt;org.apache.pinot:pinot-broker:jar:compile</title>
<path fill="none" stroke="#000000" d="M1031.2494,-290.4116C1034.2214,-289.517 1037.1938,-288.6991 1040.1017,-288 1170.2422,-256.7127 1206.8892,-272.8643 1339.1017,-252 1351.0332,-250.1171 1363.7791,-247.813 1375.8645,-245.4903"/>
<polygon fill="#000000" stroke="#000000" points="1376.6851,-248.8962 1385.8284,-243.5436 1375.3428,-242.0261 1376.6851,-248.8962"/>
</g>
<!-- org.apache.pinot:pinot&#45;tools:jar:compile&#45;&gt;org.apache.pinot:pinot&#45;parquet:jar:compile -->
<g id="edge42" class="edge">
<title>org.apache.pinot:pinot-tools:jar:compile-&gt;org.apache.pinot:pinot-parquet:jar:compile</title>
<path fill="none" stroke="#000000" d="M956.7831,-287.8314C939.0658,-278.4516 917.2672,-266.9112 898.4033,-256.9244"/>
<polygon fill="#000000" stroke="#000000" points="899.8848,-253.7485 889.4092,-252.1628 896.6095,-259.935 899.8848,-253.7485"/>
</g>
<!-- org.apache.pinot:pinot&#45;tools:jar:compile&#45;&gt;org.apache.pinot:pinot&#45;orc:jar:compile -->
<g id="edge41" class="edge">
<title>org.apache.pinot:pinot-tools:jar:compile-&gt;org.apache.pinot:pinot-orc:jar:compile</title>
<path fill="none" stroke="#000000" d="M982.522,-287.8314C978.7659,-279.8771 974.2759,-270.369 970.1219,-261.5723"/>
<polygon fill="#000000" stroke="#000000" points="973.2318,-259.9612 965.7968,-252.4133 966.9021,-262.9503 973.2318,-259.9612"/>
</g>
<!-- org.apache.pinot:pinot&#45;tools:jar:compile&#45;&gt;org.apache.pinot:pinot&#45;connector&#45;kafka&#45;base:jar:compile -->
<g id="edge43" class="edge">
<title>org.apache.pinot:pinot-tools:jar:compile-&gt;org.apache.pinot:pinot-connector-kafka-base:jar:compile</title>
<path fill="none" stroke="#000000" d="M1000.1368,-287.6467C1008.4679,-267.7884 1017.3062,-236.2557 1001.1017,-216 983.5781,-194.0955 920.8444,-180.4523 863.9126,-172.3597"/>
<polygon fill="#000000" stroke="#000000" points="864.1149,-168.8547 853.7316,-170.9615 863.1624,-175.7896 864.1149,-168.8547"/>
</g>
<!-- org.apache.pinot:pinot&#45;connector&#45;kafka&#45;0.9:jar:runtime -->
<g id="node27" class="node">
<title>org.apache.pinot:pinot-connector-kafka-0.9:jar:runtime</title>
<path fill="none" stroke="#000000" d="M1210.3045,-252C1210.3045,-252 1059.8988,-252 1059.8988,-252 1053.8988,-252 1047.8988,-246 1047.8988,-240 1047.8988,-240 1047.8988,-228 1047.8988,-228 1047.8988,-222 1053.8988,-216 1059.8988,-216 1059.8988,-216 1210.3045,-216 1210.3045,-216 1216.3045,-216 1222.3045,-222 1222.3045,-228 1222.3045,-228 1222.3045,-240 1222.3045,-240 1222.3045,-246 1216.3045,-252 1210.3045,-252"/>
<text text-anchor="start" x="1055.7504" y="-234.4" font-family="Helvetica,sans-Serif" font-size="14.00" fill="#000000">pinot-connector-kafka-0.9</text>
<text text-anchor="start" x="1115.1062" y="-224" font-family="Helvetica,sans-Serif" font-size="10.00" fill="#000000">(runtime)</text>
</g>
<!-- org.apache.pinot:pinot&#45;tools:jar:compile&#45;&gt;org.apache.pinot:pinot&#45;connector&#45;kafka&#45;0.9:jar:runtime -->
<g id="edge44" class="edge">
<title>org.apache.pinot:pinot-tools:jar:compile-&gt;org.apache.pinot:pinot-connector-kafka-0.9:jar:runtime</title>
<path fill="none" stroke="#000000" d="M1027.439,-287.8314C1046.4413,-278.3302 1069.8775,-266.6121 1090.0269,-256.5374"/>
<polygon fill="#000000" stroke="#000000" points="1091.6467,-259.6407 1099.0257,-252.038 1088.5161,-253.3797 1091.6467,-259.6407"/>
</g>
<!-- org.apache.pinot:pinot&#45;connector&#45;kafka&#45;0.9:jar:runtime&#45;&gt;org.apache.pinot:pinot&#45;connector&#45;kafka&#45;base:jar:compile -->
<g id="edge55" class="edge">
<title>org.apache.pinot:pinot-connector-kafka-0.9:jar:runtime-&gt;org.apache.pinot:pinot-connector-kafka-base:jar:compile</title>
<path fill="none" stroke="#000000" d="M1047.8873,-217.2101C992.8976,-206.6238 921.6271,-192.9033 863.8926,-181.7886"/>
<polygon fill="#000000" stroke="#000000" points="864.4956,-178.3405 854.0143,-179.8869 863.1723,-185.2143 864.4956,-178.3405"/>
</g>
<!-- org.apache.pinot:pinot&#45;minion:jar:compile -->
<g id="node28" class="node">
<title>org.apache.pinot:pinot-minion:jar:compile</title>
<path fill="none" stroke="#000000" d="M1129.3292,-324C1129.3292,-324 1060.8742,-324 1060.8742,-324 1054.8742,-324 1048.8742,-318 1048.8742,-312 1048.8742,-312 1048.8742,-300 1048.8742,-300 1048.8742,-294 1054.8742,-288 1060.8742,-288 1060.8742,-288 1129.3292,-288 1129.3292,-288 1135.3292,-288 1141.3292,-294 1141.3292,-300 1141.3292,-300 1141.3292,-312 1141.3292,-312 1141.3292,-318 1135.3292,-324 1129.3292,-324"/>
<text text-anchor="start" x="1056.9881" y="-301.8" font-family="Helvetica,sans-Serif" font-size="14.00" fill="#000000">pinot-minion</text>
</g>
<!-- org.apache.pinot:pinot&#45;minion:jar:compile&#45;&gt;org.apache.pinot:pinot&#45;core:jar:compile -->
<g id="edge45" class="edge">
<title>org.apache.pinot:pinot-minion:jar:compile-&gt;org.apache.pinot:pinot-core:jar:compile</title>
<path fill="none" stroke="#000000" d="M1141.489,-290.356C1144.3923,-289.5206 1147.2803,-288.7272 1150.1017,-288 1237.1457,-265.5649 1397.7799,-284.0945 1339.1017,-216 1305.5484,-177.0624 1165.7792,-191.8462 1099.4327,-179.6964"/>
<polygon fill="#000000" stroke="#000000" points="1099.9603,-176.229 1089.4424,-177.5029 1098.4591,-183.0661 1099.9603,-176.229"/>
</g>
<!-- org.apache.pinot:pinot&#45;integration&#45;tests:jar:compile -->
<g id="node29" class="node">
<title>org.apache.pinot:pinot-integration-tests:jar:compile</title>
<path fill="none" stroke="#000000" d="M989.1829,-396C989.1829,-396 863.0205,-396 863.0205,-396 857.0205,-396 851.0205,-390 851.0205,-384 851.0205,-384 851.0205,-372 851.0205,-372 851.0205,-366 857.0205,-360 863.0205,-360 863.0205,-360 989.1829,-360 989.1829,-360 995.1829,-360 1001.1829,-366 1001.1829,-372 1001.1829,-372 1001.1829,-384 1001.1829,-384 1001.1829,-390 995.1829,-396 989.1829,-396"/>
<text text-anchor="start" x="858.8114" y="-373.8" font-family="Helvetica,sans-Serif" font-size="14.00" fill="#000000">pinot-integration-tests</text>
</g>
<!-- org.apache.pinot:pinot&#45;integration&#45;tests:jar:compile&#45;&gt;org.apache.pinot:pinot&#45;hadoop:jar:compile -->
<g id="edge53" class="edge">
<title>org.apache.pinot:pinot-integration-tests:jar:compile-&gt;org.apache.pinot:pinot-hadoop:jar:compile</title>
<path fill="none" stroke="#000000" d="M915.5033,-359.8314C910.814,-351.7925 905.1988,-342.1666 900.0219,-333.2918"/>
<polygon fill="#000000" stroke="#000000" points="902.9047,-331.2875 894.8428,-324.4133 896.8583,-334.8146 902.9047,-331.2875"/>
</g>
<!-- org.apache.pinot:pinot&#45;integration&#45;tests:jar:compile&#45;&gt;org.apache.pinot:pinot&#45;tools:jar:compile -->
<g id="edge47" class="edge">
<title>org.apache.pinot:pinot-integration-tests:jar:compile-&gt;org.apache.pinot:pinot-tools:jar:compile</title>
<path fill="none" stroke="#000000" d="M942.5039,-359.8314C950.1432,-351.3694 959.37,-341.1489 967.7224,-331.8971"/>
<polygon fill="#000000" stroke="#000000" points="970.3755,-334.1813 974.4786,-324.4133 965.1796,-329.4906 970.3755,-334.1813"/>
</g>
<!-- org.apache.pinot:pinot&#45;integration&#45;tests:jar:compile&#45;&gt;org.apache.pinot:pinot&#45;minion:jar:compile -->
<g id="edge52" class="edge">
<title>org.apache.pinot:pinot-integration-tests:jar:compile-&gt;org.apache.pinot:pinot-minion:jar:compile</title>
<path fill="none" stroke="#000000" d="M968.7475,-359.8314C991.4507,-350.159 1019.5467,-338.1891 1043.4758,-327.9944"/>
<polygon fill="#000000" stroke="#000000" points="1044.9345,-331.1775 1052.7625,-324.038 1042.1908,-324.7376 1044.9345,-331.1775"/>
</g>
<!-- org.apache.pinot:pinot&#45;api:jar:compile -->
<g id="node30" class="node">
<title>org.apache.pinot:pinot-api:jar:compile</title>
<path fill="none" stroke="#000000" d="M804.7798,-324C804.7798,-324 759.4235,-324 759.4235,-324 753.4235,-324 747.4235,-318 747.4235,-312 747.4235,-312 747.4235,-300 747.4235,-300 747.4235,-294 753.4235,-288 759.4235,-288 759.4235,-288 804.7798,-288 804.7798,-288 810.7798,-288 816.7798,-294 816.7798,-300 816.7798,-300 816.7798,-312 816.7798,-312 816.7798,-318 810.7798,-324 804.7798,-324"/>
<text text-anchor="start" x="755.263" y="-301.8" font-family="Helvetica,sans-Serif" font-size="14.00" fill="#000000">pinot-api</text>
</g>
<!-- org.apache.pinot:pinot&#45;integration&#45;tests:jar:compile&#45;&gt;org.apache.pinot:pinot&#45;api:jar:compile -->
<g id="edge46" class="edge">
<title>org.apache.pinot:pinot-integration-tests:jar:compile-&gt;org.apache.pinot:pinot-api:jar:compile</title>
<path fill="none" stroke="#000000" d="M889.7644,-359.8314C870.4008,-350.1495 846.4331,-338.1657 826.0309,-327.9646"/>
<polygon fill="#000000" stroke="#000000" points="827.4467,-324.7594 816.9371,-323.4177 824.3161,-331.0204 827.4467,-324.7594"/>
</g>
<!-- org.apache.pinot:pinot&#45;server:test&#45;jar:tests:compile -->
<g id="node31" class="node">
<title>org.apache.pinot:pinot-server:test-jar:tests:compile</title>
<path fill="none" stroke="#000000" d="M1236.9937,-324C1236.9937,-324 1171.2096,-324 1171.2096,-324 1165.2096,-324 1159.2096,-318 1159.2096,-312 1159.2096,-312 1159.2096,-300 1159.2096,-300 1159.2096,-294 1165.2096,-288 1171.2096,-288 1171.2096,-288 1236.9937,-288 1236.9937,-288 1242.9937,-288 1248.9937,-294 1248.9937,-300 1248.9937,-300 1248.9937,-312 1248.9937,-312 1248.9937,-318 1242.9937,-324 1236.9937,-324"/>
<text text-anchor="start" x="1167.1557" y="-301.8" font-family="Helvetica,sans-Serif" font-size="14.00" fill="#000000">pinot-server</text>
</g>
<!-- org.apache.pinot:pinot&#45;integration&#45;tests:jar:compile&#45;&gt;org.apache.pinot:pinot&#45;server:test&#45;jar:tests:compile -->
<g id="edge48" class="edge">
<title>org.apache.pinot:pinot-integration-tests:jar:compile-&gt;org.apache.pinot:pinot-server:test-jar:tests:compile</title>
<path fill="none" stroke="#000000" d="M1001.1855,-361.5816C1042.4052,-352.1737 1094.5758,-339.6268 1149.2387,-324.1377"/>
<polygon fill="#000000" stroke="#000000" points="1150.457,-327.4297 1159.1099,-321.3159 1148.5331,-320.6992 1150.457,-327.4297"/>
</g>
<!-- org.apache.pinot:pinot&#45;controller:test&#45;jar:tests:compile -->
<g id="node32" class="node">
<title>org.apache.pinot:pinot-controller:test-jar:tests:compile</title>
<path fill="none" stroke="#000000" d="M1473.1636,-324C1473.1636,-324 1389.0398,-324 1389.0398,-324 1383.0398,-324 1377.0398,-318 1377.0398,-312 1377.0398,-312 1377.0398,-300 1377.0398,-300 1377.0398,-294 1383.0398,-288 1389.0398,-288 1389.0398,-288 1473.1636,-288 1473.1636,-288 1479.1636,-288 1485.1636,-294 1485.1636,-300 1485.1636,-300 1485.1636,-312 1485.1636,-312 1485.1636,-318 1479.1636,-324 1473.1636,-324"/>
<text text-anchor="start" x="1384.8212" y="-301.8" font-family="Helvetica,sans-Serif" font-size="14.00" fill="#000000">pinot-controller</text>
</g>
<!-- org.apache.pinot:pinot&#45;integration&#45;tests:jar:compile&#45;&gt;org.apache.pinot:pinot&#45;controller:test&#45;jar:tests:compile -->
<g id="edge49" class="edge">
<title>org.apache.pinot:pinot-integration-tests:jar:compile-&gt;org.apache.pinot:pinot-controller:test-jar:tests:compile</title>
<path fill="none" stroke="#000000" d="M1001.5672,-361.5765C1004.7834,-361.0166 1007.9718,-360.4877 1011.1017,-360 1165.4399,-335.9488 1209.6779,-353.2798 1366.9254,-324.0315"/>
<polygon fill="#000000" stroke="#000000" points="1367.779,-327.4322 1376.953,-322.1323 1366.4764,-320.5544 1367.779,-327.4322"/>
</g>
<!-- org.apache.pinot:pinot&#45;common:test&#45;jar:tests:compile -->
<g id="node33" class="node">
<title>org.apache.pinot:pinot-common:test-jar:tests:compile</title>
<path fill="none" stroke="#000000" d="M608.2768,-324C608.2768,-324 527.9266,-324 527.9266,-324 521.9266,-324 515.9266,-318 515.9266,-312 515.9266,-312 515.9266,-300 515.9266,-300 515.9266,-294 521.9266,-288 527.9266,-288 527.9266,-288 608.2768,-288 608.2768,-288 614.2768,-288 620.2768,-294 620.2768,-300 620.2768,-300 620.2768,-312 620.2768,-312 620.2768,-318 614.2768,-324 608.2768,-324"/>
<text text-anchor="start" x="523.7644" y="-301.8" font-family="Helvetica,sans-Serif" font-size="14.00" fill="#000000">pinot-common</text>
</g>
<!-- org.apache.pinot:pinot&#45;integration&#45;tests:jar:compile&#45;&gt;org.apache.pinot:pinot&#45;common:test&#45;jar:tests:compile -->
<g id="edge50" class="edge">
<title>org.apache.pinot:pinot-integration-tests:jar:compile-&gt;org.apache.pinot:pinot-common:test-jar:tests:compile</title>
<path fill="none" stroke="#000000" d="M850.5893,-361.8467C847.3859,-361.2128 844.213,-360.5946 841.1017,-360 750.7624,-342.7351 724.5454,-345.11 630.3711,-323.9122"/>
<polygon fill="#000000" stroke="#000000" points="630.9505,-320.4545 620.4225,-321.643 629.3938,-327.2792 630.9505,-320.4545"/>
</g>
<!-- org.apache.pinot:pinot&#45;broker:test&#45;jar:tests:compile -->
<g id="node34" class="node">
<title>org.apache.pinot:pinot-broker:test-jar:tests:compile</title>
<path fill="none" stroke="#000000" d="M717.2769,-324C717.2769,-324 650.9265,-324 650.9265,-324 644.9265,-324 638.9265,-318 638.9265,-312 638.9265,-312 638.9265,-300 638.9265,-300 638.9265,-294 644.9265,-288 650.9265,-288 650.9265,-288 717.2769,-288 717.2769,-288 723.2769,-288 729.2769,-294 729.2769,-300 729.2769,-300 729.2769,-312 729.2769,-312 729.2769,-318 723.2769,-324 717.2769,-324"/>
<text text-anchor="start" x="646.7644" y="-301.8" font-family="Helvetica,sans-Serif" font-size="14.00" fill="#000000">pinot-broker</text>
</g>
<!-- org.apache.pinot:pinot&#45;integration&#45;tests:jar:compile&#45;&gt;org.apache.pinot:pinot&#45;broker:test&#45;jar:tests:compile -->
<g id="edge51" class="edge">
<title>org.apache.pinot:pinot-integration-tests:jar:compile-&gt;org.apache.pinot:pinot-broker:test-jar:tests:compile</title>
<path fill="none" stroke="#000000" d="M860.6471,-359.9285C826.8237,-350.4195 784.6821,-338.3097 739.1875,-324.2847"/>
<polygon fill="#000000" stroke="#000000" points="740.0181,-320.878 729.4303,-321.2631 737.9473,-327.5648 740.0181,-320.878"/>
</g>
<!-- org.apache.pinot:pinot&#45;minion:test&#45;jar:tests:compile -->
<g id="node35" class="node">
<title>org.apache.pinot:pinot-minion:test-jar:tests:compile</title>
<path fill="none" stroke="#000000" d="M1347.3292,-324C1347.3292,-324 1278.8742,-324 1278.8742,-324 1272.8742,-324 1266.8742,-318 1266.8742,-312 1266.8742,-312 1266.8742,-300 1266.8742,-300 1266.8742,-294 1272.8742,-288 1278.8742,-288 1278.8742,-288 1347.3292,-288 1347.3292,-288 1353.3292,-288 1359.3292,-294 1359.3292,-300 1359.3292,-300 1359.3292,-312 1359.3292,-312 1359.3292,-318 1353.3292,-324 1347.3292,-324"/>
<text text-anchor="start" x="1274.9881" y="-301.8" font-family="Helvetica,sans-Serif" font-size="14.00" fill="#000000">pinot-minion</text>
</g>
<!-- org.apache.pinot:pinot&#45;integration&#45;tests:jar:compile&#45;&gt;org.apache.pinot:pinot&#45;minion:test&#45;jar:tests:compile -->
<g id="edge54" class="edge">
<title>org.apache.pinot:pinot-integration-tests:jar:compile-&gt;org.apache.pinot:pinot-minion:test-jar:tests:compile</title>
<path fill="none" stroke="#000000" d="M1001.5964,-361.7512C1004.8046,-361.1434 1007.9833,-360.5568 1011.1017,-360 1117.1123,-341.0699 1148.2848,-348.8521 1256.717,-324.119"/>
<polygon fill="#000000" stroke="#000000" points="1257.801,-327.4605 1266.7501,-321.7892 1256.2175,-320.642 1257.801,-327.4605"/>
</g>
<!-- org.apache.pinot:pinot&#45;perf:jar:compile -->
<g id="node36" class="node">
<title>org.apache.pinot:pinot-perf:jar:compile</title>
<path fill="none" stroke="#000000" d="M915.7238,-468C915.7238,-468 864.4796,-468 864.4796,-468 858.4796,-468 852.4796,-462 852.4796,-456 852.4796,-456 852.4796,-444 852.4796,-444 852.4796,-438 858.4796,-432 864.4796,-432 864.4796,-432 915.7238,-432 915.7238,-432 921.7238,-432 927.7238,-438 927.7238,-444 927.7238,-444 927.7238,-456 927.7238,-456 927.7238,-462 921.7238,-468 915.7238,-468"/>
<text text-anchor="start" x="860.5407" y="-445.8" font-family="Helvetica,sans-Serif" font-size="14.00" fill="#000000">pinot-perf</text>
</g>
<!-- org.apache.pinot:pinot&#45;perf:jar:compile&#45;&gt;org.apache.pinot:pinot&#45;controller:test&#45;jar:tests:compile -->
<g id="edge63" class="edge">
<title>org.apache.pinot:pinot-perf:jar:compile-&gt;org.apache.pinot:pinot-controller:test-jar:tests:compile</title>
<path fill="none" stroke="#000000" d="M927.9397,-444.8839C983.5616,-436.9248 1090.4062,-419.9631 1179.1017,-396 1249.0425,-377.1039 1327.2869,-347.8313 1377.7635,-327.8367"/>
<polygon fill="#000000" stroke="#000000" points="1379.1719,-331.0432 1387.1673,-324.0916 1376.5819,-324.5399 1379.1719,-331.0432"/>
</g>
<!-- org.apache.pinot:pinot&#45;perf:jar:compile&#45;&gt;org.apache.pinot:pinot&#45;common:test&#45;jar:tests:compile -->
<g id="edge65" class="edge">
<title>org.apache.pinot:pinot-perf:jar:compile-&gt;org.apache.pinot:pinot-common:test-jar:tests:compile</title>
<path fill="none" stroke="#000000" d="M852.2116,-444.8729C809.4158,-438.0232 738.5227,-423.4317 683.1017,-396 649.3069,-379.2726 615.9625,-351.6024 593.9528,-331.3512"/>
<polygon fill="#000000" stroke="#000000" points="596.0695,-328.5384 586.3769,-324.2599 591.2858,-333.6489 596.0695,-328.5384"/>
</g>
<!-- org.apache.pinot:pinot&#45;perf:jar:compile&#45;&gt;org.apache.pinot:pinot&#45;broker:test&#45;jar:tests:compile -->
<g id="edge64" class="edge">
<title>org.apache.pinot:pinot-perf:jar:compile-&gt;org.apache.pinot:pinot-broker:test-jar:tests:compile</title>
<path fill="none" stroke="#000000" d="M852.3041,-443.5881C804.2887,-434.688 725.2284,-417.2604 705.1017,-396 689.5591,-379.582 684.7642,-353.9713 683.5943,-334.2615"/>
<polygon fill="#000000" stroke="#000000" points="687.0847,-333.8995 683.2721,-324.0145 680.0882,-334.1196 687.0847,-333.8995"/>
</g>
<!-- org.apache.pinot:pinot&#45;integration&#45;tests:test&#45;jar:tests:compile -->
<g id="node37" class="node">
<title>org.apache.pinot:pinot-integration-tests:test-jar:tests:compile</title>
<path fill="none" stroke="#000000" d="M1158.1829,-396C1158.1829,-396 1032.0205,-396 1032.0205,-396 1026.0205,-396 1020.0205,-390 1020.0205,-384 1020.0205,-384 1020.0205,-372 1020.0205,-372 1020.0205,-366 1026.0205,-360 1032.0205,-360 1032.0205,-360 1158.1829,-360 1158.1829,-360 1164.1829,-360 1170.1829,-366 1170.1829,-372 1170.1829,-372 1170.1829,-384 1170.1829,-384 1170.1829,-390 1164.1829,-396 1158.1829,-396"/>
<text text-anchor="start" x="1027.8114" y="-373.8" font-family="Helvetica,sans-Serif" font-size="14.00" fill="#000000">pinot-integration-tests</text>
</g>
<!-- org.apache.pinot:pinot&#45;perf:jar:compile&#45;&gt;org.apache.pinot:pinot&#45;integration&#45;tests:test&#45;jar:tests:compile -->
<g id="edge62" class="edge">
<title>org.apache.pinot:pinot-perf:jar:compile-&gt;org.apache.pinot:pinot-integration-tests:test-jar:tests:compile</title>
<path fill="none" stroke="#000000" d="M927.7018,-436.7941C957.4968,-426.3295 999.7205,-411.4997 1034.3067,-399.3524"/>
<polygon fill="#000000" stroke="#000000" points="1035.5674,-402.6193 1043.8426,-396.0032 1033.2477,-396.0148 1035.5674,-402.6193"/>
</g>
<!-- org.apache.pinot:pinot&#45;integration&#45;tests:test&#45;jar:tests:compile&#45;&gt;org.apache.pinot:pinot&#45;hadoop:jar:compile -->
<g id="edge60" class="edge">
<title>org.apache.pinot:pinot-integration-tests:test-jar:tests:compile-&gt;org.apache.pinot:pinot-hadoop:jar:compile</title>
<path fill="none" stroke="#000000" d="M1042.1298,-359.9243C1011.9478,-349.6252 974.0651,-336.6984 942.957,-326.0833"/>
<polygon fill="#000000" stroke="#000000" points="943.7079,-322.6414 933.1134,-322.7244 941.4472,-329.2664 943.7079,-322.6414"/>
</g>
<!-- org.apache.pinot:pinot&#45;integration&#45;tests:test&#45;jar:tests:compile&#45;&gt;org.apache.pinot:pinot&#45;tools:jar:compile -->
<g id="edge57" class="edge">
<title>org.apache.pinot:pinot-integration-tests:test-jar:tests:compile-&gt;org.apache.pinot:pinot-tools:jar:compile</title>
<path fill="none" stroke="#000000" d="M1068.8581,-359.8314C1055.8022,-350.7927 1039.8482,-339.7476 1025.797,-330.0198"/>
<polygon fill="#000000" stroke="#000000" points="1027.5511,-326.9773 1017.3369,-324.1628 1023.5666,-332.7326 1027.5511,-326.9773"/>
</g>
<!-- org.apache.pinot:pinot&#45;integration&#45;tests:test&#45;jar:tests:compile&#45;&gt;org.apache.pinot:pinot&#45;minion:jar:compile -->
<g id="edge59" class="edge">
<title>org.apache.pinot:pinot-integration-tests:test-jar:tests:compile-&gt;org.apache.pinot:pinot-minion:jar:compile</title>
<path fill="none" stroke="#000000" d="M1095.1017,-359.8314C1095.1017,-352.131 1095.1017,-342.9743 1095.1017,-334.4166"/>
<polygon fill="#000000" stroke="#000000" points="1098.6018,-334.4132 1095.1017,-324.4133 1091.6018,-334.4133 1098.6018,-334.4132"/>
</g>
<!-- org.apache.pinot:pinot&#45;integration&#45;tests:test&#45;jar:tests:compile&#45;&gt;org.apache.pinot:pinot&#45;api:jar:compile -->
<g id="edge56" class="edge">
<title>org.apache.pinot:pinot-integration-tests:test-jar:tests:compile-&gt;org.apache.pinot:pinot-api:jar:compile</title>
<path fill="none" stroke="#000000" d="M1019.5705,-361.9419C1016.3723,-361.2819 1013.2056,-360.6323 1010.1017,-360 931.4801,-343.9851 907.6849,-347.5826 826.5832,-323.8413"/>
<polygon fill="#000000" stroke="#000000" points="827.5275,-320.4707 816.9445,-320.9719 825.5302,-327.1797 827.5275,-320.4707"/>
</g>
<!-- org.apache.pinot:pinot&#45;integration&#45;tests:test&#45;jar:tests:compile&#45;&gt;org.apache.pinot:pinot&#45;server:test&#45;jar:tests:compile -->
<g id="edge58" class="edge">
<title>org.apache.pinot:pinot-integration-tests:test-jar:tests:compile-&gt;org.apache.pinot:pinot-server:test-jar:tests:compile</title>
<path fill="none" stroke="#000000" d="M1122.607,-359.8314C1136.4197,-350.7074 1153.3273,-339.539 1168.1546,-329.7449"/>
<polygon fill="#000000" stroke="#000000" points="1170.1903,-332.5949 1176.6052,-324.1628 1166.3321,-326.7541 1170.1903,-332.5949"/>
</g>
<!-- org.apache.pinot:pinot&#45;integration&#45;tests:test&#45;jar:tests:compile&#45;&gt;org.apache.pinot:pinot&#45;minion:test&#45;jar:tests:compile -->
<g id="edge61" class="edge">
<title>org.apache.pinot:pinot-integration-tests:test-jar:tests:compile-&gt;org.apache.pinot:pinot-minion:test-jar:tests:compile</title>
<path fill="none" stroke="#000000" d="M1149.8309,-359.9243C1182.6617,-349.0811 1224.3116,-335.3252 1257.3272,-324.4209"/>
<polygon fill="#000000" stroke="#000000" points="1258.4373,-327.7403 1266.8351,-321.2807 1256.2419,-321.0935 1258.4373,-327.7403"/>
</g>
<!-- org.apache.pinot:pinot&#45;hadoop&#45;filesystem:jar:compile -->
<g id="node38" class="node">
<title>org.apache.pinot:pinot-hadoop-filesystem:jar:compile</title>
<path fill="none" stroke="#000000" d="M600.1842,-180C600.1842,-180 460.0191,-180 460.0191,-180 454.0191,-180 448.0191,-174 448.0191,-168 448.0191,-168 448.0191,-156 448.0191,-156 448.0191,-150 454.0191,-144 460.0191,-144 460.0191,-144 600.1842,-144 600.1842,-144 606.1842,-144 612.1842,-150 612.1842,-156 612.1842,-156 612.1842,-168 612.1842,-168 612.1842,-174 606.1842,-180 600.1842,-180"/>
<text text-anchor="start" x="455.8107" y="-157.8" font-family="Helvetica,sans-Serif" font-size="14.00" fill="#000000">pinot-hadoop-filesystem</text>
</g>
<!-- org.apache.pinot:pinot&#45;hadoop&#45;filesystem:jar:compile&#45;&gt;org.apache.pinot:pinot&#45;common:jar:compile -->
<g id="edge66" class="edge">
<title>org.apache.pinot:pinot-hadoop-filesystem:jar:compile-&gt;org.apache.pinot:pinot-common:jar:compile</title>
<path fill="none" stroke="#000000" d="M587.0904,-143.9243C619.9617,-133.4981 661.3235,-120.379 695.0189,-109.6914"/>
<polygon fill="#000000" stroke="#000000" points="696.284,-112.9621 704.7578,-106.6025 694.1675,-106.2897 696.284,-112.9621"/>
</g>
<!-- org.apache.pinot:pinot&#45;azure&#45;filesystem:jar:compile -->
<g id="node39" class="node">
<title>org.apache.pinot:pinot-azure-filesystem:jar:compile</title>
<path fill="none" stroke="#000000" d="M192.4965,-252C192.4965,-252 63.7068,-252 63.7068,-252 57.7068,-252 51.7068,-246 51.7068,-240 51.7068,-240 51.7068,-228 51.7068,-228 51.7068,-222 57.7068,-216 63.7068,-216 63.7068,-216 192.4965,-216 192.4965,-216 198.4965,-216 204.4965,-222 204.4965,-228 204.4965,-228 204.4965,-240 204.4965,-240 204.4965,-246 198.4965,-252 192.4965,-252"/>
<text text-anchor="start" x="59.6543" y="-229.8" font-family="Helvetica,sans-Serif" font-size="14.00" fill="#000000">pinot-azure-filesystem</text>
</g>
<!-- org.apache.pinot:pinot&#45;azure&#45;filesystem:jar:compile&#45;&gt;org.apache.pinot:pinot&#45;common:jar:compile -->
<g id="edge67" class="edge">
<title>org.apache.pinot:pinot-azure-filesystem:jar:compile-&gt;org.apache.pinot:pinot-common:jar:compile</title>
<path fill="none" stroke="#000000" d="M204.7921,-222.1929C220.1136,-219.9989 236.1053,-217.8258 251.1017,-216 333.1067,-206.0161 545.932,-214.264 621.1017,-180 642.2707,-170.3507 640.3171,-157.725 659.1017,-144 674.8505,-132.4931 693.321,-121.7056 709.9555,-112.8434"/>
<polygon fill="#000000" stroke="#000000" points="711.7388,-115.8606 718.979,-108.1257 708.4955,-109.6573 711.7388,-115.8606"/>
</g>
<!-- org.apache.pinot:pinot&#45;distribution:pom:compile -->
<g id="node40" class="node">
<title>org.apache.pinot:pinot-distribution:pom:compile</title>
<path fill="none" stroke="#000000" d="M820.2823,-396C820.2823,-396 725.921,-396 725.921,-396 719.921,-396 713.921,-390 713.921,-384 713.921,-384 713.921,-372 713.921,-372 713.921,-366 719.921,-360 725.921,-360 725.921,-360 820.2823,-360 820.2823,-360 826.2823,-360 832.2823,-366 832.2823,-372 832.2823,-372 832.2823,-384 832.2823,-384 832.2823,-390 826.2823,-396 820.2823,-396"/>
<text text-anchor="start" x="721.7616" y="-373.8" font-family="Helvetica,sans-Serif" font-size="14.00" fill="#000000">pinot-distribution</text>
</g>
<!-- org.apache.pinot:pinot&#45;distribution:pom:compile&#45;&gt;org.apache.pinot:pinot&#45;hadoop:jar:compile -->
<g id="edge69" class="edge">
<title>org.apache.pinot:pinot-distribution:pom:compile-&gt;org.apache.pinot:pinot-hadoop:jar:compile</title>
<path fill="none" stroke="#000000" d="M801.1117,-359.8314C815.1778,-350.7074 832.3957,-339.539 847.495,-329.7449"/>
<polygon fill="#000000" stroke="#000000" points="849.6157,-332.5412 856.1007,-324.1628 845.8063,-326.6684 849.6157,-332.5412"/>
</g>
<!-- org.apache.pinot:pinot&#45;distribution:pom:compile&#45;&gt;org.apache.pinot:pinot&#45;tools:jar:compile -->
<g id="edge72" class="edge">
<title>org.apache.pinot:pinot-distribution:pom:compile-&gt;org.apache.pinot:pinot-tools:jar:compile</title>
<path fill="none" stroke="#000000" d="M831.5738,-359.9931C861.9151,-350.4918 899.7706,-338.395 941.2917,-324.2208"/>
<polygon fill="#000000" stroke="#000000" points="942.4497,-327.5239 950.7737,-320.9694 940.1791,-320.9024 942.4497,-327.5239"/>
</g>
<!-- org.apache.pinot:pinot&#45;distribution:pom:compile&#45;&gt;org.apache.pinot:pinot&#45;api:jar:compile -->
<g id="edge68" class="edge">
<title>org.apache.pinot:pinot-distribution:pom:compile-&gt;org.apache.pinot:pinot-api:jar:compile</title>
<path fill="none" stroke="#000000" d="M775.3728,-359.8314C776.3353,-352.131 777.4799,-342.9743 778.5496,-334.4166"/>
<polygon fill="#000000" stroke="#000000" points="782.0326,-334.7702 779.8,-324.4133 775.0866,-333.9019 782.0326,-334.7702"/>
</g>
<!-- org.apache.pinot:pinot&#45;distribution:pom:compile&#45;&gt;org.apache.pinot:pinot&#45;hadoop&#45;filesystem:jar:compile -->
<g id="edge70" class="edge">
<title>org.apache.pinot:pinot-distribution:pom:compile-&gt;org.apache.pinot:pinot-hadoop-filesystem:jar:compile</title>
<path fill="none" stroke="#000000" d="M713.5268,-374.0744C592.4607,-365.7675 321.5095,-345.4094 231.1017,-324 144.036,-303.3821 93.8086,-325.718 43.1017,-252 -27.5721,-149.254 -74.1117,-252.5869 437.5683,-180.1401"/>
<polygon fill="#000000" stroke="#000000" points="438.4234,-183.5535 447.828,-178.6746 437.4335,-176.6239 438.4234,-183.5535"/>
</g>
<!-- org.apache.pinot:pinot&#45;distribution:pom:compile&#45;&gt;org.apache.pinot:pinot&#45;azure&#45;filesystem:jar:compile -->
<g id="edge71" class="edge">
<title>org.apache.pinot:pinot-distribution:pom:compile-&gt;org.apache.pinot:pinot-azure-filesystem:jar:compile</title>
<path fill="none" stroke="#000000" d="M713.7561,-376.2957C627.8939,-372.5924 464.6742,-360.8867 331.1017,-324 272.8388,-307.9104 209.7979,-277.7704 169.6856,-256.8255"/>
<polygon fill="#000000" stroke="#000000" points="171.2205,-253.6781 160.7425,-252.1094 167.9553,-259.8699 171.2205,-253.6781"/>
</g>
<!-- org.apache.pinot:pinot&#45;connector&#45;kafka&#45;2.0:jar:compile -->
<g id="node41" class="node">
<title>org.apache.pinot:pinot-connector-kafka-2.0:jar:compile</title>
<path fill="none" stroke="#000000" d="M775.3045,-252C775.3045,-252 624.8988,-252 624.8988,-252 618.8988,-252 612.8988,-246 612.8988,-240 612.8988,-240 612.8988,-228 612.8988,-228 612.8988,-222 618.8988,-216 624.8988,-216 624.8988,-216 775.3045,-216 775.3045,-216 781.3045,-216 787.3045,-222 787.3045,-228 787.3045,-228 787.3045,-240 787.3045,-240 787.3045,-246 781.3045,-252 775.3045,-252"/>
<text text-anchor="start" x="620.7504" y="-229.8" font-family="Helvetica,sans-Serif" font-size="14.00" fill="#000000">pinot-connector-kafka-2.0</text>
</g>
<!-- org.apache.pinot:pinot&#45;connector&#45;kafka&#45;2.0:jar:compile&#45;&gt;org.apache.pinot:pinot&#45;connector&#45;kafka&#45;base:jar:compile -->
<g id="edge73" class="edge">
<title>org.apache.pinot:pinot-connector-kafka-2.0:jar:compile-&gt;org.apache.pinot:pinot-connector-kafka-base:jar:compile</title>
<path fill="none" stroke="#000000" d="M715.4946,-215.8314C722.592,-207.454 731.1497,-197.3531 738.9257,-188.1749"/>
<polygon fill="#000000" stroke="#000000" points="741.7078,-190.3056 745.5015,-180.4133 736.3669,-185.7807 741.7078,-190.3056"/>
</g>
</g>
</svg>